<?xml version="1.0" encoding="UTF-8"?>
<svg width="215px" height="215px" viewBox="0 0 215 215" version="1.1" xmlns="http://www.w3.org/2000/svg" xmlns:xlink="http://www.w3.org/1999/xlink" style="background: #000000;">
    <title>Merchant Candy Logo</title>
    <g id="brand-logo" stroke="none" stroke-width="1" fill="none" fill-rule="evenodd">
        <rect fill="#000000" x="0" y="0" width="215" height="215"></rect>
        <path d="M38.68,75.854 C43.342,75.854 46.576,79.088 46.576,84.338 L46.576,97.4 L42.922,97.4 L42.922,84.464 C42.922,81.146 41.074,79.34 38.302,79.34 C35.362,79.34 33.136,81.188 33.136,85.724 L33.136,97.4 L29.482,97.4 L29.482,84.464 C29.482,81.146 27.76,79.34 25.03,79.34 C22.216,79.34 19.654,81.188 19.654,85.724 L19.654,97.4 L16,97.4 L16,76.4 L19.654,76.4 L19.654,79.214 C21.166,76.862 23.35,75.854 25.912,75.854 C28.768,75.854 30.868,77.156 32.086,79.424 C33.556,77.03 35.95,75.854 38.68,75.854 Z M54.22,88.58 C54.934,92.36 57.916,94.502 61.822,94.502 C64.72,94.502 66.82,93.158 67.87,91.436 L70.978,93.2 C69.13,96.056 65.938,97.946 61.738,97.946 C54.976,97.946 50.482,93.2 50.482,86.9 C50.482,80.684 54.934,75.854 61.486,75.854 C67.828,75.854 71.944,81.062 71.944,86.942 C71.944,87.488 71.902,88.034 71.818,88.58 L54.22,88.58 Z M61.486,79.298 C57.538,79.298 54.808,81.734 54.22,85.388 L68.248,85.388 C67.618,81.23 64.636,79.298 61.486,79.298 Z M79.798,79.928 C81.142,76.988 83.704,76.022 86.35,76.022 L86.35,79.844 C83.2,79.718 79.798,81.314 79.798,86.27 L79.798,97.4 L76.144,97.4 L76.144,76.4 L79.798,76.4 L79.798,79.928 Z M99.79,97.946 C93.448,97.946 88.744,93.116 88.744,86.9 C88.744,80.684 93.448,75.854 99.79,75.854 C103.948,75.854 107.476,78.038 109.072,81.356 L106.006,83.12 C104.956,80.894 102.604,79.424 99.79,79.424 C95.59,79.424 92.398,82.658 92.398,86.9 C92.398,91.1 95.59,94.334 99.79,94.334 C102.646,94.334 104.956,92.864 106.132,90.68 L109.24,92.486 C107.476,95.762 103.906,97.946 99.79,97.946 Z M123.352,75.854 C128.266,75.854 131.5,79.13 131.5,84.506 L131.5,97.4 L127.846,97.4 L127.846,84.716 C127.846,81.272 125.872,79.34 122.638,79.34 C119.278,79.34 116.548,81.314 116.548,86.27 L116.548,97.4 L112.894,97.4 L112.894,68 L116.548,68 L116.548,79.424 C118.102,76.946 120.412,75.854 123.352,75.854 Z M153.97,76.4 L157.624,76.4 L157.624,97.4 L153.97,97.4 L153.97,93.788 C152.29,96.35 149.602,97.946 146.032,97.946 C140.194,97.946 135.406,93.116 135.406,86.9 C135.406,80.684 140.194,75.854 146.032,75.854 C149.602,75.854 152.29,77.45 153.97,80.012 L153.97,76.4 Z M146.494,94.418 C150.736,94.418 153.97,91.184 153.97,86.9 C153.97,82.616 150.736,79.382 146.494,79.382 C142.294,79.382 139.06,82.616 139.06,86.9 C139.06,91.184 142.294,94.418 146.494,94.418 Z M173.626,75.854 C178.54,75.854 181.774,79.13 181.774,84.506 L181.774,97.4 L178.12,97.4 L178.12,84.716 C178.12,81.272 176.146,79.34 172.912,79.34 C169.552,79.34 166.822,81.314 166.822,86.27 L166.822,97.4 L163.168,97.4 L163.168,76.4 L166.822,76.4 L166.822,79.424 C168.376,76.946 170.686,75.854 173.626,75.854 Z M198.28,79.928 L192.694,79.928 L192.694,91.31 C192.694,94.502 194.542,94.292 198.28,94.124 L198.28,97.4 C191.98,98.24 189.04,96.56 189.04,91.31 L189.04,79.928 L184.882,79.928 L184.882,76.4 L189.04,76.4 L189.04,71.612 L192.694,70.52 L192.694,76.4 L198.28,76.4 L198.28,79.928 Z M27.642,138.546 C21.3,138.546 16.596,133.716 16.596,127.5 C16.596,121.284 21.3,116.454 27.642,116.454 C31.8,116.454 35.328,118.638 36.924,121.956 L33.858,123.72 C32.808,121.494 30.456,120.024 27.642,120.024 C23.442,120.024 20.25,123.258 20.25,127.5 C20.25,131.7 23.442,134.934 27.642,134.934 C30.498,134.934 32.808,133.464 33.984,131.28 L37.092,133.086 C35.328,136.362 31.758,138.546 27.642,138.546 Z M58.134,117 L61.788,117 L61.788,138 L58.134,138 L58.134,134.388 C56.454,136.95 53.766,138.546 50.196,138.546 C44.358,138.546 39.57,133.716 39.57,127.5 C39.57,121.284 44.358,116.454 50.196,116.454 C53.766,116.454 56.454,118.05 58.134,120.612 L58.134,117 Z M50.658,135.018 C54.9,135.018 58.134,131.784 58.134,127.5 C58.134,123.216 54.9,119.982 50.658,119.982 C46.458,119.982 43.224,123.216 43.224,127.5 C43.224,131.784 46.458,135.018 50.658,135.018 Z M77.79,116.454 C82.704,116.454 85.938,119.73 85.938,125.106 L85.938,138 L82.284,138 L82.284,125.316 C82.284,121.872 80.31,119.94 77.076,119.94 C73.716,119.94 70.986,121.914 70.986,126.87 L70.986,138 L67.332,138 L67.332,117 L70.986,117 L70.986,120.024 C72.54,117.546 74.85,116.454 77.79,116.454 Z M108.408,108.6 L112.062,108.6 L112.062,138 L108.408,138 L108.408,134.388 C106.728,136.95 104.04,138.546 100.47,138.546 C94.632,138.546 89.844,133.716 89.844,127.5 C89.844,121.284 94.632,116.454 100.47,116.454 C104.04,116.454 106.728,118.05 108.408,120.612 L108.408,108.6 Z M100.932,135.018 C105.174,135.018 108.408,131.784 108.408,127.5 C108.408,123.216 105.174,119.982 100.932,119.982 C96.732,119.982 93.498,123.216 93.498,127.5 C93.498,131.784 96.732,135.018 100.932,135.018 Z M132.264,117 L136.17,117 L127.602,139.302 C125.838,144.006 122.562,146.694 118.278,146.4 L118.278,142.998 C121.092,143.208 122.856,141.486 123.948,138.714 L124.326,137.916 L115.17,117 L119.076,117 L126.216,133.464 L132.264,117 Z" id="merchantcandy" fill="#FFFFFF" fill-rule="nonzero"></path>
    </g>
</svg>